<?xml version="1.0" encoding="utf-8"?>
<!-- Generator: Adobe Illustrator 23.1.1, SVG Export Plug-In . SVG Version: 6.00 Build 0)  -->
<svg version="1.2" baseProfile="tiny" id="Layer_1" xmlns="http://www.w3.org/2000/svg" xmlns:xlink="http://www.w3.org/1999/xlink"
	 x="0px" y="0px" viewBox="0 0 140 200" xml:space="preserve">
<path fill="#E21331" d="M138.75,93.35c-0.08-2.28-1.59-4-3.87-4.08c-1.71-0.06-2-0.85-1.97-2.26c0.05-2.08,0.02-4.15,0.02-6.23
	c0-23.25,0-46.49,0-69.74c0-1.3-0.3-2.72,1.7-3.05c0.41-0.07,1.01-1.4,0.84-1.92c-0.21-0.66-1.12-1.52-1.75-1.54
	c-4.62-0.14-9.25-0.15-13.87-0.01c-0.63,0.02-1.64,1.02-1.72,1.65c-0.08,0.64,0.74,1.43,1.26,2.09c0.16,0.2,0.61,0.16,1.14,0.28
	c0,0.98,0,1.78,0,2.58c0,24.85,0.01,49.71,0,74.56c0,3.93,0.49,3.35-3.35,3.53c-1.49,0.07-2.22-0.32-2.8-1.76
	c-2.36-5.78-6.55-10.07-11.68-13.44C92.33,67.23,80.62,64.7,68.5,63.6c-8.77-0.79-17.53-0.48-26.24,0.79
	c-9.28,1.35-18.23,3.81-26.24,8.85C6.03,79.53-0.2,88.05,1.46,100.53c1.65,12.37,7.92,21.52,19.79,26.1
	c9.24,3.57,17.76,2.49,24.76-5.21c0.34-0.37,0.76-0.67,1.24-1.08c3.13,3.64,6.78,6.12,11.62,6.09c4.81-0.03,8.37-2.7,11.47-6.13
	c0.53,0.5,0.89,0.8,1.2,1.14c6.54,7.2,14.5,8.58,23.44,5.63c10.52-3.47,16.87-10.93,20.05-21.32c0.69-2.24,1.07-2.43,4.26-2.08
	c2.1,0.23,1.21,1.8,1.21,2.78c0.05,16.48,0.04,32.96,0.04,49.44c0,0.73,0.08,1.47,0,2.2c-1.86,17.51-17.4,26.7-30.34,24.97
	c-9.37-1.26-16.33-5.83-21.09-13.87c-1.67-2.82-2.8-5.86-3.09-9.2c0.82-0.31,1.5-0.57,2.19-0.83c5.22-1.97,8.37-6.76,7.77-12.25
	c-0.1-0.91-1.2-2.14-2.1-2.43c-1.36-0.44-2.37,0.59-2.72,2.01c-0.11,0.45-0.1,0.93-0.13,1.39c-0.2,3.64-1.84,6.06-5.41,6.8
	c-2.9,0.6-6,0.9-8.93,0.58c-6.31-0.67-7.46-2.03-8.47-8.28c-0.01-0.07-0.01-0.14-0.02-0.2c-0.37-1.42-1.11-2.54-2.74-2.39
	c-1.59,0.15-2.21,1.22-2.24,2.79c-0.11,5.95,2.82,10.24,8.52,12.19c1.17,0.4,1.69,0.9,1.86,2.16c2.69,19.49,19.84,34.27,39.09,34.03
	c16.1-0.2,28-7.46,35.78-21.45c3.33-5.99,4.47-12.54,4.45-19.35c-0.03-16.15,0.01-32.29-0.03-48.44c0-1.66,0.08-2.78,2.26-2.81
	c2.04-0.02,3.5-1.91,3.58-4.15C138.82,97.37,138.82,95.36,138.75,93.35z M108.98,104.33c-3.01,9.88-9.51,15.99-19.76,17.8
	c-4.52,0.79-8.69-0.25-11.9-3.7c-2.72-2.93-5.1-6.19-7.86-9.08c-1.82-1.9-3.86-3.73-6.13-5.04c-4.22-2.44-8.91-1.5-12.69,2.41
	c-2.87,2.97-5.57,6.13-8.16,9.34c-5.58,6.93-11.47,7.46-19.1,4.8c-8.88-3.1-14.58-11.71-15.76-20.67
	c-1.51-11.51,5.07-18.05,13.99-23.06c6.62-3.71,13.9-5.61,21.41-6.54c5.22-0.65,10.48-1.04,13.67-1.34
	c13.99,0.37,25.74,1.57,36.74,6.64c5.02,2.32,9.62,5.27,12.96,9.81C110.59,91.43,110.98,97.75,108.98,104.33z"/>
</svg>
